<svg width="800" height="520" viewBox="0 0 800 520" fill="none" xmlns="http://www.w3.org/2000/svg">
  <defs>
    <linearGradient id="coopBg" x1="64" y1="48" x2="726" y2="470" gradientUnits="userSpaceOnUse">
      <stop stop-color="#314857"/>
      <stop offset="0.45" stop-color="#537F9C"/>
      <stop offset="1" stop-color="#6A7F39"/>
    </linearGradient>
  </defs>
  <rect width="800" height="520" rx="36" fill="url(#coopBg)"/>
  <circle cx="114" cy="128" r="72" fill="#EFF4F8" fill-opacity="0.12"/>
  <circle cx="690" cy="380" r="100" fill="#E8EDD8" fill-opacity="0.12"/>
  <circle cx="180" cy="166" r="44" fill="#F8FAF5"/>
  <circle cx="400" cy="124" r="44" fill="#F8FAF5"/>
  <circle cx="616" cy="190" r="44" fill="#F8FAF5"/>
  <path d="M222 166H356" stroke="#DAE5EE" stroke-width="6" stroke-linecap="round" stroke-dasharray="10 14"/>
  <path d="M444 132L572 176" stroke="#DAE5EE" stroke-width="6" stroke-linecap="round" stroke-dasharray="10 14"/>
  <rect x="148" y="304" width="132" height="116" rx="28" fill="#F8FAF5" fill-opacity="0.96"/>
  <rect x="334" y="264" width="146" height="138" rx="30" fill="#F8FAF5" fill-opacity="0.96"/>
  <rect x="546" y="316" width="122" height="96" rx="26" fill="#F8FAF5" fill-opacity="0.96"/>
  <path d="M184 330H244V390H184V330Z" fill="#D2DCAD"/>
  <path d="M184 330L214 306L244 330" fill="#B8C980"/>
  <path d="M368 300H446V378H368V300Z" fill="#DAE5EE"/>
  <path d="M368 300L407 272L446 300" fill="#96B7CB"/>
  <path d="M572 338H642V392H572V338Z" fill="#E8EDD8"/>
  <path d="M572 338L607 314L642 338" fill="#B8C980"/>
  <path d="M214 262L280 228L352 246" stroke="#E8EDD8" stroke-width="8" stroke-linecap="round" stroke-linejoin="round"/>
  <path d="M444 236L516 254L586 230" stroke="#E8EDD8" stroke-width="8" stroke-linecap="round" stroke-linejoin="round"/>
  <text x="112" y="468" fill="#F8FAF5" font-family="Poppins, sans-serif" font-size="22" font-weight="700">Coordinate orders. Lower unit cost.</text>
</svg>
