<svg width="800" height="520" viewBox="0 0 800 520" fill="none" xmlns="http://www.w3.org/2000/svg">
  <defs>
    <linearGradient id="growingBg" x1="76" y1="52" x2="712" y2="470" gradientUnits="userSpaceOnUse">
      <stop stop-color="#223028"/>
      <stop offset="0.4" stop-color="#314857"/>
      <stop offset="1" stop-color="#537F9C"/>
    </linearGradient>
  </defs>
  <rect width="800" height="520" rx="36" fill="url(#growingBg)"/>
  <circle cx="104" cy="100" r="78" fill="#E8EDD8" fill-opacity="0.08"/>
  <circle cx="716" cy="422" r="92" fill="#E8EDD8" fill-opacity="0.12"/>
  <rect x="90" y="104" width="620" height="316" rx="34" fill="#F8FAF5" fill-opacity="0.08" stroke="#EFF4F8" stroke-opacity="0.18"/>
  <path d="M162 368V174" stroke="#EFF4F8" stroke-opacity="0.35" stroke-width="3" stroke-linecap="round"/>
  <path d="M162 368H636" stroke="#EFF4F8" stroke-opacity="0.35" stroke-width="3" stroke-linecap="round"/>
  <path d="M196 318L280 264L350 282L442 198L544 226L620 158" stroke="#D2DCAD" stroke-width="8" stroke-linecap="round" stroke-linejoin="round"/>
  <circle cx="196" cy="318" r="12" fill="#F8FAF5"/>
  <circle cx="280" cy="264" r="12" fill="#F8FAF5"/>
  <circle cx="350" cy="282" r="12" fill="#F8FAF5"/>
  <circle cx="442" cy="198" r="12" fill="#F8FAF5"/>
  <circle cx="544" cy="226" r="12" fill="#F8FAF5"/>
  <circle cx="620" cy="158" r="12" fill="#F8FAF5"/>
  <path d="M584 158H620V194" stroke="#F8FAF5" stroke-width="6" stroke-linecap="round" stroke-linejoin="round"/>
  <rect x="502" y="84" width="156" height="58" rx="20" fill="#E8EDD8"/>
  <text x="534" y="120" fill="#45512A" font-family="Poppins, sans-serif" font-size="24" font-weight="700">Yield +12.8%</text>
  <rect x="108" y="72" width="178" height="70" rx="22" fill="#FFFFFF" fill-opacity="0.92"/>
  <text x="136" y="104" fill="#314857" font-family="Poppins, sans-serif" font-size="18" font-weight="700">Risk labels</text>
  <rect x="136" y="116" width="42" height="10" rx="5" fill="#6A7F39"/>
  <rect x="184" y="116" width="42" height="10" rx="5" fill="#96B7CB"/>
  <rect x="232" y="116" width="42" height="10" rx="5" fill="#D2DCAD"/>
  <rect x="536" y="274" width="144" height="102" rx="28" fill="#223028" fill-opacity="0.42"/>
  <circle cx="592" cy="326" r="34" fill="#E8EDD8" fill-opacity="0.18" stroke="#E8EDD8" stroke-width="2"/>
  <circle cx="592" cy="326" r="18" fill="#E8EDD8"/>
  <path d="M592 308V344" stroke="#55662F" stroke-width="5" stroke-linecap="round"/>
  <path d="M574 326H610" stroke="#55662F" stroke-width="5" stroke-linecap="round"/>
  <text x="182" y="408" fill="#F8FAF5" fill-opacity="0.84" font-family="Poppins, sans-serif" font-size="20" font-weight="600">Deploy idle balances with visible risk.</text>
</svg>
