<svg width="800" height="520" viewBox="0 0 800 520" fill="none" xmlns="http://www.w3.org/2000/svg">
  <defs>
    <linearGradient id="holdingBg" x1="86" y1="44" x2="730" y2="476" gradientUnits="userSpaceOnUse">
      <stop stop-color="#2A3C49"/>
      <stop offset="0.48" stop-color="#38556A"/>
      <stop offset="1" stop-color="#6A7F39"/>
    </linearGradient>
    <linearGradient id="holdingPanel" x1="200" y1="108" x2="535" y2="408" gradientUnits="userSpaceOnUse">
      <stop stop-color="#F8FAF5"/>
      <stop offset="1" stop-color="#EFF4F8"/>
    </linearGradient>
  </defs>
  <rect width="800" height="520" rx="36" fill="url(#holdingBg)"/>
  <circle cx="694" cy="112" r="72" fill="#E8EDD8" fill-opacity="0.14"/>
  <circle cx="120" cy="412" r="92" fill="#DAE5EE" fill-opacity="0.12"/>
  <rect x="182" y="96" width="356" height="328" rx="34" fill="url(#holdingPanel)"/>
  <rect x="214" y="136" width="292" height="76" rx="24" fill="#223028"/>
  <rect x="238" y="162" width="112" height="24" rx="12" fill="#6A7F39"/>
  <rect x="366" y="162" width="108" height="24" rx="12" fill="#537F9C"/>
  <rect x="214" y="238" width="136" height="74" rx="22" fill="#E8EDD8"/>
  <rect x="364" y="238" width="142" height="74" rx="22" fill="#DAE5EE"/>
  <rect x="214" y="328" width="292" height="64" rx="22" fill="#FFFFFF" fill-opacity="0.78"/>
  <rect x="236" y="346" width="72" height="12" rx="6" fill="#B8C980"/>
  <rect x="236" y="368" width="134" height="10" rx="5" fill="#BCD0DE"/>
  <rect x="390" y="346" width="86" height="12" rx="6" fill="#6D99B5"/>
  <rect x="390" y="368" width="58" height="10" rx="5" fill="#96B7CB"/>
  <rect x="76" y="138" width="84" height="84" rx="24" fill="#F5F7EE" fill-opacity="0.92"/>
  <path d="M102 154H134C142.837 154 150 161.163 150 170V190C150 198.837 142.837 206 134 206H102C93.1634 206 86 198.837 86 190V170C86 161.163 93.1634 154 102 154Z" fill="#6A7F39"/>
  <path d="M110 180H126" stroke="#F8FAF5" stroke-width="4" stroke-linecap="round"/>
  <path d="M118 172V188" stroke="#F8FAF5" stroke-width="4" stroke-linecap="round"/>
  <rect x="592" y="254" width="142" height="150" rx="28" fill="#F8FAF5" fill-opacity="0.9"/>
  <rect x="616" y="282" width="94" height="24" rx="12" fill="#DAE5EE"/>
  <rect x="616" y="320" width="76" height="22" rx="11" fill="#E8EDD8"/>
  <rect x="616" y="356" width="62" height="22" rx="11" fill="#D2DCAD"/>
  <text x="628" y="299" fill="#38556A" font-family="Poppins, sans-serif" font-size="17" font-weight="700">Bonds</text>
  <text x="630" y="336" fill="#55662F" font-family="Poppins, sans-serif" font-size="17" font-weight="700">T-Bills</text>
  <text x="630" y="372" fill="#55662F" font-family="Poppins, sans-serif" font-size="17" font-weight="700">MMF</text>
  <text x="240" y="182" fill="#F8FAF5" font-family="Poppins, sans-serif" font-size="18" font-weight="600">Tokenized assets</text>
  <text x="394" y="182" fill="#F8FAF5" font-family="Poppins, sans-serif" font-size="18" font-weight="600">Savings buckets</text>
</svg>
