<svg width="800" height="520" viewBox="0 0 800 520" fill="none" xmlns="http://www.w3.org/2000/svg">
  <defs>
    <linearGradient id="spendingBg" x1="84" y1="40" x2="726" y2="478" gradientUnits="userSpaceOnUse">
      <stop stop-color="#F5F7EE"/>
      <stop offset="0.58" stop-color="#E8EDD8"/>
      <stop offset="1" stop-color="#DAE5EE"/>
    </linearGradient>
  </defs>
  <rect width="800" height="520" rx="36" fill="url(#spendingBg)"/>
  <circle cx="122" cy="116" r="84" fill="#FFFFFF" fill-opacity="0.62"/>
  <circle cx="680" cy="404" r="94" fill="#FFFFFF" fill-opacity="0.42"/>
  <rect x="106" y="104" width="278" height="302" rx="36" fill="#FFFFFF"/>
  <rect x="138" y="138" width="214" height="54" rx="20" fill="#F5F7EE"/>
  <rect x="160" y="158" width="72" height="14" rx="7" fill="#6A7F39"/>
  <rect x="246" y="158" width="76" height="14" rx="7" fill="#BCD0DE"/>
  <path d="M164 232H320L302 336H192L164 232Z" fill="#6A7F39"/>
  <path d="M184 232L202 184H282L300 232" stroke="#6A7F39" stroke-width="10" stroke-linecap="round" stroke-linejoin="round"/>
  <rect x="440" y="110" width="250" height="138" rx="30" fill="#223028"/>
  <circle cx="496" cy="176" r="36" fill="#E8EDD8"/>
  <path d="M496 156V176L510 184" stroke="#55662F" stroke-width="6" stroke-linecap="round" stroke-linejoin="round"/>
  <text x="548" y="170" fill="#F8FAF5" font-family="Poppins, sans-serif" font-size="22" font-weight="700">Buy window</text>
  <text x="548" y="200" fill="#F8FAF5" fill-opacity="0.72" font-family="Poppins, sans-serif" font-size="17" font-weight="500">Better timing, lower spend</text>
  <rect x="440" y="278" width="250" height="118" rx="30" fill="#FFFFFF" fill-opacity="0.92"/>
  <rect x="470" y="308" width="96" height="18" rx="9" fill="#6A7F39"/>
  <rect x="470" y="338" width="156" height="14" rx="7" fill="#BCD0DE"/>
  <rect x="470" y="364" width="130" height="14" rx="7" fill="#BCD0DE"/>
  <path d="M632 315L646 329L672 296" stroke="#537F9C" stroke-width="8" stroke-linecap="round" stroke-linejoin="round"/>
  <text x="126" y="438" fill="#394225" font-family="Poppins, sans-serif" font-size="22" font-weight="700">Smart baskets. Better timing.</text>
</svg>
